# xmcd
#
# Track frame offsets: 
#        150
#        12962
#        23942
#        35714
#        53993
#        75985
#        96432
#        114460
#        134972
#        152227
#        171572
#        188675
#
# Disc length: 2747 seconds
#
# Revision: 0
# Processed by: cddbd v1.5.2PL0 Copyright (c) Steve Scherf et al.
# Submitted via: ExactAudioCopy v0.99pb5
#
DISCID=a50ab90c
DTITLE=Fragile - Voice Mail
DYEAR=2007
DGENRE=A Cappella
TTITLE0=On Broadway
TTITLE1=Isn't She Lovely
TTITLE2=Dont Know Why
TTITLE3=Fragile
TTITLE4=Oh Happy Day
TTITLE5=Respect
TTITLE6=Like A Star
TTITLE7=Shape Of My Heart
TTITLE8=Dont Worry Be Happy
TTITLE9=The Lion Sleeps Tonight
TTITLE10=Golden Eye
TTITLE11=Roxanne
EXTD=
EXTT0=
EXTT1=
EXTT2=
EXTT3=
EXTT4=
EXTT5=
EXTT6=
EXTT7=
EXTT8=
EXTT9=
EXTT10=
EXTT11=
PLAYORDER=
